<svg width="25" height="25" viewBox="0 0 25 25" fill="none" xmlns="http://www.w3.org/2000/svg">
<path fill-rule="evenodd" clip-rule="evenodd" d="M8.20358 3.99702L11.2155 7.19291C11.5888 7.58922 11.589 8.21022 11.2161 8.60686L9.76013 10.1554C10.6743 12.9504 12.7188 15.1864 15.31 16.2437L15.6001 16.3563L16.9802 14.8884C17.3678 14.4762 18.014 14.4583 18.4235 14.8486L21.4355 18.0445C21.8087 18.4408 21.809 19.0618 21.4361 19.4584L20.6871 20.2551C19.3191 21.71 17.2359 22.1201 15.4062 21.2945C12.8198 20.1276 10.7328 18.7013 9.14522 17.0156C7.55764 15.3299 6.21371 13.1132 5.11344 10.3657C4.3662 8.49971 4.6903 6.38444 5.9277 4.93097L6.08712 4.7528L6.76025 4.03687C7.14788 3.62458 7.79409 3.60674 8.20358 3.99702Z" stroke="#64ffda" stroke-width="1.5" stroke-linecap="round"/>
</svg>
