<svg xmlns="http://www.w3.org/2000/svg" width="90" height="90" viewBox="0 0 90 90">
  <path id="Icon_simple-jquery" data-name="Icon simple-jquery" d="M5.735,21.812c-7.971,11.89-6.984,27.354-.89,39.981.139.308.293.6.443.893a6.376,6.376,0,0,0,.289.581,3.326,3.326,0,0,0,.176.324c.1.2.2.4.3.593l.589,1.033c.109.191.214.378.338.569.207.366.451.729.665,1.1.1.152.188.3.3.456q.546.891,1.164,1.731c.293.417.586.823.9,1.228.1.148.214.3.319.444l.83,1.049c.1.121.2.261.312.386.368.46.758.908,1.149,1.361,0,.008.011.016.019.027a12.013,12.013,0,0,0,1.592,1.715c.3.32.6.639.92.951l.379.378c.417.405.834.811,1.273,1.2.008,0,.011.008.019.012l.214.195c.383.347.77.694,1.164,1.014l.469.409c.319.265.65.518.976.78l.511.405c.349.273.721.542,1.078.807.131.1.263.195.4.285l.109.09,1.055.721.451.312c.552.366,1.1.713,1.645,1.056.158.082.315.172.462.265.406.242.826.487,1.235.713.225.133.458.246.691.366.282.164.574.324.875.487a1.192,1.192,0,0,1,.21.09c.124.058.24.121.36.183.451.234.92.456,1.408.678a3,3,0,0,1,.285.133c.541.246,1.081.479,1.641.709.128.039.263.105.394.156.507.2,1.029.4,1.543.593l.188.07c.574.2,1.141.4,1.723.585.135.039.274.09.417.129a17.743,17.743,0,0,0,1.776.53C76.623,96.87,87.82,65.531,87.82,65.531,78.414,78.247,61.725,81.6,45.918,77.869c-.586-.14-1.171-.335-1.761-.515q-1.072-.328-2.129-.706l-.233-.094c-.511-.179-1-.378-1.5-.577q-.2-.088-.413-.16c-.552-.23-1.089-.468-1.622-.713-.116-.039-.214-.094-.33-.14q-.68-.325-1.355-.663c-.139-.062-.263-.129-.4-.2-.353-.172-.706-.366-1.051-.554q-.356-.177-.7-.374c-.424-.234-.849-.487-1.273-.729a4.929,4.929,0,0,0-.421-.257q-.83-.51-1.645-1.049-.226-.146-.443-.308-.6-.382-1.171-.8c-.131-.09-.252-.187-.387-.285q-.559-.4-1.1-.826c-.158-.133-.327-.257-.5-.39-.33-.269-.665-.526-.995-.811l-.443-.366q-.638-.534-1.254-1.1a.977.977,0,0,0-.139-.117l-1.3-1.232-.375-.366c-.308-.324-.623-.635-.939-.955l-.364-.39q-.595-.615-1.16-1.259l-.056-.062c-.4-.452-.785-.912-1.175-1.38-.1-.121-.2-.249-.3-.378l-.849-1.08q-.649-.864-1.277-1.746c-8.767-12.428-11.94-29.58-4.922-43.649M30.467,11.8c-5.778,8.611-5.452,20.127-.954,29.233a35.781,35.781,0,0,0,2.542,4.413,20.556,20.556,0,0,0,2.974,3.844c.4.476.837.936,1.292,1.4l.338.351q.642.643,1.314,1.267l.056.051q.76.688,1.554,1.333c.128.09.237.195.36.285.526.421,1.055.826,1.6,1.228l.056.035c.233.175.481.335.743.507.105.07.225.164.338.234.4.265.788.515,1.19.768.064.027.12.062.18.09.338.214.706.421,1.059.612.124.078.244.136.372.211.252.129.5.265.74.4l.12.055c.507.257,1.025.5,1.532.741.128.051.237.094.345.148.417.187.841.366,1.258.534.188.066.364.144.541.2.383.148.785.285,1.164.421l.526.175a12.35,12.35,0,0,0,1.682.5C83.13,65.952,90.016,42.173,90.016,42.173c-6.2,9.262-18.2,13.675-30.98,10.229q-.848-.228-1.682-.507c-.18-.051-.338-.109-.511-.164-.39-.14-.792-.277-1.171-.425l-.541-.211c-.421-.175-.849-.339-1.258-.526-.128-.058-.244-.1-.342-.156-.526-.246-1.055-.487-1.566-.748l-.773-.417-.447-.234c-.345-.187-.665-.382-.995-.585a2.3,2.3,0,0,1-.233-.133c-.4-.257-.811-.507-1.19-.772-.128-.074-.244-.164-.364-.242l-.781-.53c-.541-.39-1.07-.811-1.6-1.216-.12-.113-.237-.207-.353-.308A37.089,37.089,0,0,1,33.069,27.266c-2.215-7.383-1.727-15.663,2.1-22.384m16.1-.573a18.588,18.588,0,0,0-1.389,17.367A23.988,23.988,0,0,0,63.407,34.793c.244.1.481.179.732.273l.33.105c.345.113.695.246,1.051.327C81.951,38.789,86.4,26.74,87.594,24.97,83.682,30.8,77.123,32.2,69.076,30.17a17.7,17.7,0,0,1-1.937-.624,23.333,23.333,0,0,1-2.317-.99,24.338,24.338,0,0,1-4.055-2.573c-7.209-5.668-11.673-16.49-6.972-25.3" transform="translate(-0.016 -0.679)" fill="#2196f3"/>
</svg>
