<svg width="32" height="32" viewBox="0 0 32 32" fill="none" xmlns="http://www.w3.org/2000/svg">
<path fill-rule="evenodd" clip-rule="evenodd" d="M6.05886 5.82339C6.42183 4.73448 7.44087 4 8.58868 4H23.4113C24.5591 4 25.5782 4.73448 25.9411 5.82339L29.1965 15.5895C29.2871 15.8614 29.3333 16.1461 29.3333 16.4327V25.3333C29.3333 26.8061 28.1394 28 26.6667 28H5.33332C3.86056 28 2.66666 26.8061 2.66666 25.3333V16.4327C2.66666 16.1461 2.71286 15.8614 2.8035 15.5895L6.05886 5.82339ZM8.58868 6.66667H23.4113L26.5224 16H22.6667C21.4212 16 20.463 16.3194 19.7 16.8917C19.0147 17.4056 18.5717 18.0712 18.2592 18.5408L18.2239 18.5937C17.8715 19.1223 17.6552 19.4253 17.3667 19.6417C17.1296 19.8194 16.7545 20 16 20C15.2455 20 14.8703 19.8194 14.6333 19.6417C14.3448 19.4253 14.1285 19.1223 13.7761 18.5937L13.7408 18.5408C13.4283 18.0712 12.9853 17.4056 12.3 16.8917C11.537 16.3194 10.5788 16 9.33332 16H5.47757L8.58868 6.66667ZM5.33332 18.6667V25.3333H26.6667V18.6667H22.6667C21.9121 18.6667 21.537 18.8472 21.3 19.025C21.0115 19.2414 20.7951 19.5443 20.4427 20.0729L20.4075 20.1259C20.095 20.5954 19.652 21.261 18.9667 21.775C18.2037 22.3472 17.2455 22.6667 16 22.6667C14.7545 22.6667 13.7963 22.3472 13.0333 21.775C12.348 21.261 11.905 20.5954 11.5925 20.1259L11.5573 20.0729C11.2049 19.5443 10.9885 19.2414 10.7 19.025C10.463 18.8472 10.0879 18.6667 9.33332 18.6667H5.33332Z" fill="black"/>
</svg>
