<svg width="32" height="32" viewBox="0 0 32 32" fill="none" xmlns="http://www.w3.org/2000/svg">
<path fill-rule="evenodd" clip-rule="evenodd" d="M16.5415 4.11492C16.1968 3.96169 15.8032 3.96169 15.4585 4.11492L3.45849 9.44825C2.97698 9.66225 2.66667 10.1397 2.66667 10.6667C2.66667 11.1936 2.97698 11.6711 3.45849 11.8851L6.71705 13.3333L3.45849 14.7816C2.97698 14.9956 2.66667 15.4731 2.66667 16C2.66667 16.5269 2.97698 17.0044 3.45849 17.2184L6.71705 18.6667L3.45849 20.1149C2.97698 20.3289 2.66667 20.8064 2.66667 21.3333C2.66667 21.8603 2.97698 22.3377 3.45849 22.5518L15.4585 27.8851C15.8032 28.0383 16.1968 28.0383 16.5415 27.8851L28.5415 22.5518C29.023 22.3377 29.3333 21.8603 29.3333 21.3333C29.3333 20.8064 29.023 20.3289 28.5415 20.1149L25.283 18.6667L28.5415 17.2184C29.023 17.0044 29.3333 16.5269 29.3333 16C29.3333 15.4731 29.023 14.9956 28.5415 14.7816L25.283 13.3333L28.5415 11.8851C29.023 11.6711 29.3333 11.1936 29.3333 10.6667C29.3333 10.1397 29.023 9.66225 28.5415 9.44825L16.5415 4.11492ZM22 14.7924L16.5415 17.2184C16.1968 17.3716 15.8032 17.3716 15.4585 17.2184L10 14.7924L7.28296 16L16 19.8742L24.7171 16L22 14.7924ZM16 14.5409L7.28296 10.6667L16 6.79242L24.7171 10.6667L16 14.5409ZM16.5415 22.5518L22 20.1258L24.7171 21.3333L16 25.2076L7.28296 21.3333L10 20.1258L15.4585 22.5518C15.8032 22.705 16.1968 22.705 16.5415 22.5518Z" fill="#64ffda"/>
</svg>
